<?xml version="1.0" standalone="no"?>
<!DOCTYPE svg PUBLIC "-//W3C//DTD SVG 20010904//EN"
 "http://www.w3.org/TR/2001/REC-SVG-20010904/DTD/svg10.dtd">
<svg version="1.0" xmlns="http://www.w3.org/2000/svg"
 width="520.000000pt" height="298.000000pt" viewBox="0 0 520.000000 298.000000"
 preserveAspectRatio="xMidYMid meet">

<g transform="translate(0.000000,298.000000) scale(0.100000,-0.100000)"
fill="#000000" stroke="none">
<path d="M2681 1903 c-55 -38 -399 -361 -357 -336 6 4 -45 -53 -113 -125 -115
-123 -121 -132 -95 -132 21 0 45 16 90 58 33 31 48 46 32 33 -15 -14 -28 -22
-28 -19 0 15 193 224 222 241 18 10 25 16 15 13 -17 -5 -17 -5 0 19 43 59 256
257 296 275 23 11 34 20 25 20 -9 0 -48 -21 -87 -47z"/>
<path d="M2823 1926 c0 -15 -16 -46 -38 -73 l-37 -48 40 42 c42 45 54 73 42
93 -5 7 -7 2 -7 -14z"/>
<path d="M2700 1779 c-35 -31 -35 -31 -3 -9 18 11 35 25 38 30 10 16 2 11 -35
-21z"/>
<path d="M2604 1714 c-18 -14 -18 -15 4 -4 12 6 22 13 22 15 0 8 -5 6 -26 -11z"/>
<path d="M2540 1680 c-9 -6 -10 -10 -3 -10 6 0 15 5 18 10 8 12 4 12 -15 0z"/>
<path d="M1634 1666 c-15 -12 -16 -16 -5 -30 10 -12 17 -14 27 -5 30 25 10 58
-22 35z"/>
<path d="M3131 1667 c-6 -6 -11 -17 -11 -25 0 -19 44 -11 48 9 4 20 -22 31
-37 16z"/>
<path d="M1506 1509 c-20 -17 -34 -34 -33 -38 4 -13 -178 -208 -208 -223 -16
-8 -24 -13 -17 -11 23 5 -4 -30 -85 -108 -43 -42 -88 -79 -101 -84 -13 -4 -21
-9 -19 -12 16 -15 117 59 239 174 42 40 82 73 88 73 6 0 9 4 5 9 -3 5 28 45
68 88 41 43 91 97 111 121 l38 42 -25 0 c-15 0 -42 -13 -61 -31z m4 -13 c0 -2
-8 -10 -17 -17 -16 -13 -17 -12 -4 4 13 16 21 21 21 13z"/>
<path d="M1723 1516 c-29 -14 -72 -43 -96 -65 -37 -35 -44 -46 -46 -85 -1 -24
2 -47 8 -50 5 -3 7 2 4 13 -6 23 123 163 177 191 51 28 14 24 -47 -4z"/>
<path d="M1826 1533 c6 -4 14 -15 17 -23 5 -11 6 -9 4 4 -1 11 -9 21 -17 23
-10 3 -11 2 -4 -4z"/>
<path d="M1984 1516 c-28 -13 -73 -43 -100 -67 -45 -41 -49 -47 -46 -84 2 -22
8 -44 13 -50 7 -7 8 -4 3 8 -4 11 3 29 19 50 38 50 124 130 159 150 48 25 11
21 -48 -7z"/>
<path d="M2445 1533 c44 -11 40 -24 -33 -91 -54 -51 -72 -74 -72 -94 0 -15 5
-30 10 -33 6 -4 9 -2 8 4 -2 6 28 42 65 80 60 62 68 74 65 103 -3 29 -7 33
-33 35 -18 1 -22 -1 -10 -4z"/>
<path d="M2768 1533 c7 -3 16 -2 19 1 4 3 -2 6 -13 5 -11 0 -14 -3 -6 -6z"/>
<path d="M2834 1519 c-17 -19 -19 -19 -25 -2 -6 14 -8 12 -8 -10 -1 -20 -17
-43 -58 -84 -32 -31 -51 -51 -42 -45 14 10 16 6 15 -30 -1 -26 4 -42 12 -44 7
-1 8 0 2 3 -19 9 -10 39 21 69 17 16 58 59 91 97 55 61 58 67 36 67 -14 0 -33
-9 -44 -21z"/>
<path d="M2999 1503 c-17 -21 -28 -31 -24 -23 5 8 -4 4 -18 -9 -15 -14 -27
-27 -27 -29 0 -3 9 3 20 13 11 10 20 15 20 11 0 -14 -195 -216 -208 -216 -7 0
-11 -4 -8 -9 3 -5 -26 -43 -65 -86 -67 -71 -106 -101 -154 -116 -20 -7 -20 -7
1 -8 50 -2 201 129 416 360 60 65 113 121 119 124 17 11 9 25 -15 25 -16 0
-36 -13 -57 -37z"/>
<path d="M3308 1533 c7 -3 16 -2 19 1 4 3 -2 6 -13 5 -11 0 -14 -3 -6 -6z"/>
<path d="M3385 1520 c-17 -19 -19 -19 -31 -2 -12 15 -13 15 -8 -5 5 -16 -6
-34 -41 -72 -25 -27 -46 -52 -46 -55 1 -4 -1 -17 -5 -31 -7 -29 10 -55 35 -54
11 0 8 3 -7 9 -20 9 -21 12 -11 32 7 13 50 62 97 111 76 77 83 87 60 87 -14 0
-33 -9 -43 -20z"/>
<path d="M2395 1520 c-3 -6 1 -7 9 -4 18 7 21 14 7 14 -6 0 -13 -4 -16 -10z"/>
<path d="M2649 1494 c-36 -19 -83 -53 -105 -76 -21 -22 -34 -38 -27 -34 8 4
11 -3 11 -23 -1 -35 17 -61 41 -60 11 0 9 3 -6 9 -13 5 -23 12 -23 15 0 35
110 149 179 185 26 14 30 19 16 19 -11 0 -50 -15 -86 -35z"/>
<path d="M3214 1506 c-72 -33 -132 -90 -140 -131 -8 -42 10 -75 39 -74 l22 2
-22 4 c-15 3 -23 12 -23 24 0 26 90 121 155 165 58 40 42 44 -31 10z"/>
<path d="M3650 1519 c0 -5 -43 -55 -97 -110 -90 -93 -94 -99 -67 -99 22 0 43
15 92 65 35 36 60 60 56 53 -4 -7 2 -4 14 6 26 22 30 35 5 15 -15 -12 -16 -12
-8 6 11 28 18 75 11 75 -3 0 -6 -5 -6 -11z"/>
<path d="M3826 1508 c-3 -12 -29 -41 -56 -63 -27 -22 -57 -54 -65 -72 -15 -31
-12 -63 7 -63 5 0 6 5 2 11 -3 6 22 40 59 78 67 68 83 96 68 119 -6 11 -10 8
-15 -10z"/>
<path d="M2209 1493 c-13 -16 -12 -17 4 -4 9 7 17 15 17 17 0 8 -8 3 -21 -13z"/>
<path d="M2354 1494 c-18 -14 -18 -15 4 -4 12 6 22 13 22 15 0 8 -5 6 -26 -11z"/>
<path d="M1826 1473 c-6 -14 -5 -15 5 -6 7 7 10 15 7 18 -3 3 -9 -2 -12 -12z"/>
<path d="M2086 1473 c-6 -14 -5 -15 5 -6 7 7 10 15 7 18 -3 3 -9 -2 -12 -12z"/>
<path d="M2159 1453 l-24 -28 28 24 c25 23 32 31 24 31 -2 0 -14 -12 -28 -27z"/>
<path d="M3499 1463 c-13 -16 -12 -17 4 -4 16 13 21 21 13 21 -2 0 -10 -8 -17
-17z"/>
<path d="M1424 1438 l-19 -23 23 19 c21 18 27 26 19 26 -2 0 -12 -10 -23 -22z"/>
<path d="M1792 1428 l-21 -23 26 -2 c18 -1 22 2 13 7 -11 7 -11 11 -1 24 20
24 7 19 -17 -6z"/>
<path d="M2030 1403 c-25 -26 -31 -35 -14 -20 21 19 37 26 50 21 15 -5 16 -4
5 4 -12 9 -12 13 -2 26 28 34 3 14 -39 -31z"/>
<path d="M2879 1403 l-24 -28 28 24 c25 23 32 31 24 31 -2 0 -14 -12 -28 -27z"/>
<path d="M1549 1383 c-13 -16 -12 -17 4 -4 16 13 21 21 13 21 -2 0 -10 -8 -17
-17z"/>
<path d="M3394 1378 l-19 -23 23 19 c21 18 27 26 19 26 -2 0 -12 -10 -23 -22z"/>
<path d="M3859 1383 c-13 -16 -12 -17 4 -4 9 7 17 15 17 17 0 8 -8 3 -21 -13z"/>
<path d="M1739 1373 c-13 -16 -12 -17 4 -4 9 7 17 15 17 17 0 8 -8 3 -21 -13z"/>
<path d="M3229 1373 c-13 -16 -12 -17 4 -4 16 13 21 21 13 21 -2 0 -10 -8 -17
-17z"/>
<path d="M2659 1353 c-13 -16 -12 -17 4 -4 9 7 17 15 17 17 0 8 -8 3 -21 -13z"/>
<path d="M2819 1353 c-13 -16 -12 -17 4 -4 9 7 17 15 17 17 0 8 -8 3 -21 -13z"/>
<path d="M3819 1353 c-13 -16 -12 -17 4 -4 16 13 21 21 13 21 -2 0 -10 -8 -17
-17z"/>
<path d="M1450 1325 c-14 -8 -20 -14 -14 -15 5 0 19 7 30 15 24 18 16 19 -16
0z"/>
<path d="M2610 1325 c-14 -8 -20 -14 -14 -15 5 0 19 7 30 15 24 18 16 19 -16
0z"/>
<path d="M1910 1320 c-8 -5 -10 -10 -5 -10 6 0 17 5 25 10 8 5 11 10 5 10 -5
0 -17 -5 -25 -10z"/>
<path d="M2870 1290 c-8 -5 -10 -10 -5 -10 6 0 17 5 25 10 8 5 11 10 5 10 -5
0 -17 -5 -25 -10z"/>
<path d="M2710 1230 c-8 -5 -10 -10 -5 -10 6 0 17 5 25 10 8 5 11 10 5 10 -5
0 -17 -5 -25 -10z"/>
<path d="M1190 1220 c-8 -5 -10 -10 -5 -10 6 0 17 5 25 10 8 5 11 10 5 10 -5
0 -17 -5 -25 -10z"/>
<path d="M1128 1189 c-21 -11 -38 -22 -38 -24 0 -3 18 4 40 15 22 11 40 23 40
25 0 7 0 7 -42 -16z"/>
<path d="M2645 1200 c-3 -6 1 -7 9 -4 18 7 21 14 7 14 -6 0 -13 -4 -16 -10z"/>
<path d="M2549 1141 c-64 -46 -90 -85 -69 -104 10 -10 11 -9 5 1 -12 22 15 59
72 99 48 33 60 43 50 43 -2 0 -28 -18 -58 -39z"/>
<path d="M1022 1116 c-26 -25 -45 -46 -42 -48 3 -2 27 18 54 45 27 26 46 47
42 47 -4 0 -28 -20 -54 -44z"/>
<path d="M980 1040 c0 -5 5 -10 11 -10 5 0 7 5 4 10 -3 6 -8 10 -11 10 -2 0
-4 -4 -4 -10z"/>
</g>
</svg>
