<svg xmlns="http://www.w3.org/2000/svg" version="1.1" xmlns:xlink="http://www.w3.org/1999/xlink" xmlns:svgjs="http://svgjs.com/svgjs" width="800px" height="800px"><svg fill="#000000" width="800px" height="800px" viewBox="0 0 32 32" enable-background="new 0 0 32 32" version="1.1" xml:space="preserve" xmlns="http://www.w3.org/2000/svg" xmlns:xlink="http://www.w3.org/1999/xlink">

<g id="SvgjsG1024"></g>

<g id="SvgjsG1023"></g>

<g id="SvgjsG1022"></g>

<g id="SvgjsG1021"></g>

<g id="SvgjsG1020"></g>

<g id="SvgjsG1019"></g>

<g id="SvgjsG1018"></g>

<g id="SvgjsG1017"></g>

<g id="SvgjsG1016"></g>

<g id="SvgjsG1015"></g>

<g id="SvgjsG1014">

<g>

<g>

<path d="M4.743,2.496C4.266,2.223,4,2.45,4,3v26c0,0.55,0.266,0.776,0.743,0.504l22.701-13.008     c0.478-0.273,0.509-0.719,0.031-0.992L4.743,2.496z"></path>

<path d="M4.385,30.619L4.385,30.619C3.718,30.619,3,30.112,3,29V3c0-1.113,0.718-1.62,1.385-1.62c0.28,0,0.567,0.083,0.854,0.248     l22.733,13.008c0.538,0.308,0.846,0.798,0.846,1.347c0,0.559-0.32,1.063-0.878,1.382L5.24,30.371     C4.952,30.536,4.665,30.619,4.385,30.619z M5.003,3.797L5,28.203l21.314-12.212L5.003,3.797z"></path>

</g>

<g>

<line x1="28" x2="20" y1="26" y2="26"></line>

<path d="M28,27h-8c-0.552,0-1-0.447-1-1s0.448-1,1-1h8c0.552,0,1,0.447,1,1S28.552,27,28,27z"></path>

</g>

<g>

<line x1="24" x2="24" y1="22" y2="30"></line>

<path d="M24,31c-0.552,0-1-0.447-1-1v-8c0-0.553,0.448-1,1-1s1,0.447,1,1v8C25,30.553,24.552,31,24,31z"></path>

</g>

</g>

</g>

<g id="SvgjsG1013"></g>

<g id="SvgjsG1012"></g>

<g id="SvgjsG1011"></g>

<g id="SvgjsG1010"></g>

<g id="SvgjsG1009"></g>

<g id="SvgjsG1008"></g>

<g id="SvgjsG1007"></g>

<g id="SvgjsG1006"></g>

<g id="SvgjsG1005"></g>

<g id="SvgjsG1004"></g>

<g id="SvgjsG1003"></g>

<g id="SvgjsG1002"></g>

<g id="SvgjsG1001"></g>

<g id="SvgjsG1000"></g>

</svg><style>@media (prefers-color-scheme: light) { :root { filter: none; } }
@media (prefers-color-scheme: dark) { :root { filter: contrast(0.8333333333333334) brightness(1.7); } }
</style></svg>
